<?xml version="1.0" encoding="UTF-8"?>
<svg version="1.1" xmlns="http://www.w3.org/2000/svg" width="36" height="36">
<path d="M0 0 C4.3043075 3.89437345 8.28332956 7.55748988 8.828125 13.64453125 C8.92679435 18.99734344 8.80918241 22.85551528 5.625 27.375 C1.01324821 32.00855676 -2.48489583 34.50144969 -9.1875 34.625 C-14.56024174 34.53922328 -18.11950134 33.61988455 -22.03515625 29.72265625 C-26.65574071 24.55590342 -27.69226812 20.77593047 -27.58203125 13.87109375 C-27.13837383 8.52209202 -24.73731769 5.51653887 -20.875 2.0625 C-15.00132694 -2.84510841 -6.81688288 -3.28220287 0 0 Z M-21.375 9.375 C-23.25355086 13.13210172 -23.03879578 17.29478738 -22.375 21.375 C-20.37488833 24.80903788 -17.95148506 27.58675747 -14.375 29.375 C-10.07287555 29.99633059 -6.04104513 30.34536679 -2.1953125 28.10546875 C0.88424341 25.47954037 3.33422689 23.38832773 3.93359375 19.23828125 C4.18428861 14.27756166 4.05419359 11.18749103 0.75 7.3125 C-2.39376451 4.08520551 -4.55869202 3.16510439 -9.0625 2.9375 C-14.76602947 2.96229795 -17.75833025 5.10578127 -21.375 9.375 Z " fill="#B2FF00" transform="translate(27.375,1.625)"/>
<path d="M0 0 C2.05078125 0.03255208 4.1015625 0.06510417 6.15234375 0.09765625 C7.5132327 4.18032311 6.83633068 6.85693726 6.15234375 11.09765625 C5.15234375 12.09765625 5.15234375 12.09765625 2.15234375 12.22265625 C-0.84765625 12.09765625 -0.84765625 12.09765625 -1.84765625 11.09765625 C-2.10695337 9.43815465 -2.3064664 7.76905132 -2.47265625 6.09765625 C-2.56804688 5.19015625 -2.6634375 4.28265625 -2.76171875 3.34765625 C-2.79007813 2.60515625 -2.8184375 1.86265625 -2.84765625 1.09765625 C-1.84765625 0.09765625 -1.84765625 0.09765625 0 0 Z " fill="#B2FF00" transform="translate(15.84765625,7.90234375)"/>
<path d="M0 0 C2.64 0 5.28 0 8 0 C8.042721 1.66611905 8.04063832 3.33382885 8 5 C7 6 7 6 4 6.125 C1 6 1 6 0 5 C-0.04063832 3.33382885 -0.042721 1.66611905 0 0 Z " fill="#B2FF00" transform="translate(14,22)"/>
</svg>
