<?xml version="1.0" encoding="UTF-8"?>
<svg version="1.1" xmlns="http://www.w3.org/2000/svg" width="32" height="32">
<path d="M0 0 C5.28 0 10.56 0 16 0 C16 1.32 16 2.64 16 4 C17.32 4 18.64 4 20 4 C20 5.32 20 6.64 20 8 C21.32 8 22.64 8 24 8 C24 10.64 24 13.28 24 16 C23.01 16.33 22.02 16.66 21 17 C20.67 17.99 20.34 18.98 20 20 C19.01 20.33 18.02 20.66 17 21 C16.67 21.99 16.34 22.98 16 24 C10.72 24 5.44 24 0 24 C-0.33 23.01 -0.66 22.02 -1 21 C-1.99 20.67 -2.98 20.34 -4 20 C-4.33 19.01 -4.66 18.02 -5 17 C-5.99 16.67 -6.98 16.34 -8 16 C-8.61528766 10.92387682 -6.61658349 8.17017994 -4 4 C-2.68 4 -1.36 4 0 4 C0 2.68 0 1.36 0 0 Z " fill="#FEFEFE" transform="translate(8,4)"/>
</svg>
