<?xml version="1.0" encoding="UTF-8"?>
<svg version="1.1" xmlns="http://www.w3.org/2000/svg" width="36" height="36">
<path d="M0 0 C5.2354914 2.47495957 9.39229231 6.78458462 12 12 C12.50239048 17.50158755 12.76205731 22.38795569 10.375 27.4375 C2.66453929 35.75668129 2.66453929 35.75668129 -2.609375 36.23828125 C-13.15815008 36.48756822 -13.15815008 36.48756822 -18 32 C-23.34738681 26.27274418 -24.36086749 22.74817647 -24.27734375 14.98046875 C-23.7662429 9.48793426 -20.84622355 6.63312043 -16.875 3.1875 C-11.51385467 -0.89163231 -6.59394009 -0.61359076 0 0 Z M-18 11 C-19.87855086 14.75710172 -19.66379578 18.91978738 -19 23 C-16.99988833 26.43403788 -14.57648506 29.21175747 -11 31 C-6.69787555 31.62133059 -2.66604513 31.97036679 1.1796875 29.73046875 C4.25924341 27.10454037 6.70922689 25.01332773 7.30859375 20.86328125 C7.55928861 15.90256166 7.42919359 12.81249103 4.125 8.9375 C0.98123549 5.71020551 -1.18369202 4.79010439 -5.6875 4.5625 C-11.39102947 4.58729795 -14.38333025 6.73078127 -18 11 Z " fill="#00A3FC" transform="translate(24,0)"/>
<path d="M0 0 C2.05078125 0.03255208 4.1015625 0.06510417 6.15234375 0.09765625 C7.5132327 4.18032311 6.83633068 6.85693726 6.15234375 11.09765625 C5.15234375 12.09765625 5.15234375 12.09765625 2.15234375 12.22265625 C-0.84765625 12.09765625 -0.84765625 12.09765625 -1.84765625 11.09765625 C-2.10695337 9.43815465 -2.3064664 7.76905132 -2.47265625 6.09765625 C-2.56804688 5.19015625 -2.6634375 4.28265625 -2.76171875 3.34765625 C-2.79007813 2.60515625 -2.8184375 1.86265625 -2.84765625 1.09765625 C-1.84765625 0.09765625 -1.84765625 0.09765625 0 0 Z " fill="#00A3FC" transform="translate(15.84765625,7.90234375)"/>
<path d="M0 0 C2.64 0 5.28 0 8 0 C8.042721 1.66611905 8.04063832 3.33382885 8 5 C7 6 7 6 4 6.125 C1 6 1 6 0 5 C-0.04063832 3.33382885 -0.042721 1.66611905 0 0 Z " fill="#00A3FC" transform="translate(14,22)"/>
</svg>
