<?xml version="1.0" encoding="UTF-8"?>
<svg version="1.1" xmlns="http://www.w3.org/2000/svg" width="36" height="36">
<path d="M0 0 C5.2354914 2.47495957 9.39229231 6.78458462 12 12 C12.73324193 18.03300322 13.04794682 23.41733208 9.375 28.5 C5.75424009 32.52306656 2.75522133 35.63567321 -2.8359375 36.375 C-7.61608998 36.56384553 -11.07684012 36.43640285 -15.4375 34.375 C-23.75668129 26.66453929 -23.75668129 26.66453929 -24.23828125 21.390625 C-24.48756822 10.84184992 -24.48756822 10.84184992 -20 6 C-13.50970804 -0.05981341 -8.7909454 -0.81803031 0 0 Z M-18 11 C-19.87968188 14.75936376 -19.65815796 18.91698301 -19 23 C-16.74535879 26.98129682 -14.35831515 29.54722828 -10 31 C-3.52608645 31.41767184 -0.27564291 30.80769392 4.75 26.5 C7.34456673 23.38651992 7.2792493 19.89945759 7.21484375 15.9921875 C6.7758755 11.92175463 4.57131711 9.64056767 1.9375 6.6875 C-5.71798834 2.28966627 -12.53783353 4.55230502 -18 11 Z " fill="#FC2800" transform="translate(24,0)"/>
<path d="M0 0 C2.05078125 0.03255208 4.1015625 0.06510417 6.15234375 0.09765625 C6.17921654 1.91007677 6.1986809 3.72260858 6.21484375 5.53515625 C6.22644531 6.54449219 6.23804688 7.55382812 6.25 8.59375 C6.15234375 11.09765625 6.15234375 11.09765625 5.15234375 12.09765625 C2.81936942 12.13858562 0.4852915 12.14007348 -1.84765625 12.09765625 C-2.04167258 10.2858422 -2.2277 8.47317093 -2.41015625 6.66015625 C-2.51457031 5.65082031 -2.61898438 4.64148438 -2.7265625 3.6015625 C-2.76652344 2.77527344 -2.80648438 1.94898438 -2.84765625 1.09765625 C-1.84765625 0.09765625 -1.84765625 0.09765625 0 0 Z " fill="#FC2800" transform="translate(15.84765625,7.90234375)"/>
<path d="M0 0 C2.31 0 4.62 0 7 0 C7.38218767 1.65614657 7.71395102 3.32457024 8 5 C7 6 7 6 4 6.125 C1 6 1 6 0 5 C-0.04063832 3.33382885 -0.042721 1.66611905 0 0 Z " fill="#FC2800" transform="translate(14,22)"/>
</svg>
